# xmcd CD database file
#
# Track frame offsets:
#	150
#	20462
#	37300
#	55327
#	72975
#	87552
#	104287
#	120512
#	139955
#	154367
#
# Disc length: 2300 seconds
#
# Revision: 1
# Processed by: cddbd v1.5.2PL0 Copyright (c) Steve Scherf et al.
# Submitted via: CDex 1.51
#
DISCID=9208fa0a
DTITLE=Lucinha Lira - Lucinha Lira
DYEAR=1995
DGENRE=MPB
TTITLE0=Neste Mesmo Lugar
TTITLE1=Brinco De Amor
TTITLE2=E A Vida Continua
TTITLE3=Morro De Saudade
TTITLE4=Chegou Sexta-Feira
TTITLE5=Ma Chérie Amour
TTITLE6=Guantanamera
TTITLE7=La Puerta - Contigo En La Distancia - Saborami
TTITLE8=Contigo Aprendi
TTITLE9=Serenata Do Adeus
EXTD=YEAR: 1995
EXTT0=
EXTT1=
EXTT2=
EXTT3=
EXTT4=
EXTT5=
EXTT6=
EXTT7=
EXTT8=
EXTT9=
PLAYORDER=
